<svg width="30" height="30" viewBox="0 0 30 30" fill="none" xmlns="http://www.w3.org/2000/svg">
<path d="M20.2294 28.0766C27.6671 24.9633 31.1727 16.4101 28.0594 8.97246C24.9462 1.53482 16.393 -1.97078 8.95532 1.14248C1.51768 4.25574 -1.98792 12.8089 1.12534 20.2466C4.2386 27.6842 12.7918 31.1898 20.2294 28.0766Z" fill="#FFD078"/>
<path d="M6.69922 22.8999L7.89922 18.3999C7.19922 17.1999 6.79922 15.7999 6.79922 14.2999C6.79922 9.6999 10.5992 5.8999 15.1992 5.8999C19.7992 5.8999 23.5992 9.6999 23.5992 14.2999C23.5992 18.8999 19.7992 22.6999 15.1992 22.6999C13.7992 22.6999 12.3992 22.2999 11.1992 21.6999L6.69922 22.8999ZM11.4992 19.9999L11.7992 20.1999C12.8992 20.7999 14.0992 21.1999 15.2992 21.1999C19.0992 21.1999 22.0992 18.0999 22.0992 14.3999C22.0992 10.6999 18.9992 7.4999 15.2992 7.4999C11.4992 7.4999 8.49922 10.5999 8.49922 14.2999C8.49922 15.4999 8.79922 16.7999 9.49922 17.7999L9.69922 18.0999L8.99922 20.6999L11.4992 19.9999Z" fill="#282B36"/>
<path fill-rule="evenodd" clip-rule="evenodd" d="M18.4008 15.4999C18.1008 15.2999 17.6008 15.0999 17.2008 15.1999C16.9008 15.2999 16.7008 15.7999 16.5008 16.0999C16.4008 16.1999 16.3008 16.1999 16.1008 16.1999C14.9008 15.6999 14.0008 14.8999 13.4008 13.8999C13.3008 13.6999 13.3008 13.5999 13.4008 13.3999C13.6008 13.1999 13.8008 12.8999 13.9008 12.5999C14.0008 12.2999 13.8008 11.8999 13.7008 11.6999C13.5008 11.2999 13.4008 10.7999 13.0008 10.5999C12.7008 10.3999 12.2008 10.4999 12.0008 10.7999C11.5008 11.1999 11.3008 11.7999 11.3008 12.4999C11.3008 12.6999 11.3008 12.8999 11.4008 12.9999C11.5008 13.3999 11.7008 13.7999 11.9008 14.1999C12.1008 14.4999 12.2008 14.6999 12.4008 14.9999C13.0008 15.8999 13.8008 16.5999 14.7008 17.0999C15.2008 17.3999 15.6008 17.5999 16.1008 17.7999C16.7008 17.9999 17.2008 18.1999 17.8008 18.0999C18.4008 17.9999 19.1008 17.5999 19.3008 16.9999C19.4008 16.7999 19.4008 16.5999 19.4008 16.3999C19.3008 15.8999 18.7008 15.6999 18.4008 15.4999Z" fill="#282B36"/>
</svg>
